HIERARCHY
ROOT hip
{
  OFFSET 0 0 0
  CHANNELS 6 Xposition Yposition Zposition Zrotation Yrotation Xrotation
  JOINT abdomen
  {
    OFFSET 0 20.6881 -0.73152
    CHANNELS 3 Zrotation Xrotation Yrotation
    JOINT chest
    {
      OFFSET 0 11.7043 -0.48768
      CHANNELS 3 Zrotation Xrotation Yrotation
      JOINT neck
      {
        OFFSET 0 22.1894 -2.19456
        CHANNELS 3 Zrotation Xrotation Yrotation
        JOINT head
        {
          OFFSET -0.24384 7.07133 1.2192
          CHANNELS 3 Zrotation Xrotation Yrotation
          JOINT leftEye
          {
            OFFSET 4.14528 8.04674 8.04672
            CHANNELS 3 Zrotation Xrotation Yrotation
            End Site
            {
              OFFSET 1 0 0
            }
          }
          JOINT rightEye
          {
            OFFSET -3.6576 8.04674 8.04672
            CHANNELS 3 Zrotation Xrotation Yrotation
            End Site
            {
              OFFSET 1 0 0
            }
          }
        }
      }
      JOINT rCollar
      {
        OFFSET -2.68224 19.2634 -4.8768
        CHANNELS 3 Zrotation Xrotation Yrotation
        JOINT rShldr
        {
          OFFSET -8.77824 -1.95073 1.46304
          CHANNELS 3 Zrotation Xrotation Yrotation
          JOINT rForeArm
          {
            OFFSET -28.1742 -1.7115 0.48768
            CHANNELS 3 Zrotation Xrotation Yrotation
            JOINT rHand
            {
              OFFSET -22.5879 0.773209 7.07136
              CHANNELS 3 Zrotation Xrotation Yrotation
              JOINT rThumb1
              {
                OFFSET -1.2192 -0.487915 3.41376
                CHANNELS 3 Zrotation Xrotation Yrotation
                JOINT rThumb2
                {
                  OFFSET -3.37035 -0.52449 3.41376
                  CHANNELS 3 Zrotation Xrotation Yrotation
                  End Site
                  {
                    OFFSET -1.78271 -1.18214 1.43049
                  }
                }
              }
              JOINT rIndex1
              {
                OFFSET -7.75947 0.938293 5.60832
                CHANNELS 3 Zrotation Xrotation Yrotation
                JOINT rIndex2
                {
                  OFFSET -2.54057 -0.884171 1.56538
                  CHANNELS 3 Zrotation Xrotation Yrotation
                  End Site
                  {
                    OFFSET -1.62519 -0.234802 1.16502
                  }
                }
              }
              JOINT rMid1
              {
                OFFSET -8.24714 1.18213 3.41376
                CHANNELS 3 Zrotation Xrotation Yrotation
                JOINT rMid2
                {
                  OFFSET -3.10165 -0.590103 1.0647
                  CHANNELS 3 Zrotation Xrotation Yrotation
                  End Site
                  {
                    OFFSET -2.48547 -0.328903 0.83742
                  }
                }
              }
              JOINT rRing1
              {
                OFFSET -8.82822 0.546677 1.51678
                CHANNELS 3 Zrotation Xrotation Yrotation
                JOINT rRing2
                {
                  OFFSET -2.60934 -0.819778 -0.0198488
                  CHANNELS 3 Zrotation Xrotation Yrotation
                  End Site
                  {
                    OFFSET -2.33842 -0.294052 0.168128
                  }
                }
              }
              JOINT rPinky1
              {
                OFFSET -8.27202 -0.0477905 -0.4584
                CHANNELS 3 Zrotation Xrotation Yrotation
                JOINT rPinky2
                {
                  OFFSET -1.82734 -0.647385 -0.700984
                  CHANNELS 3 Zrotation Xrotation Yrotation
                  End Site
                  {
                    OFFSET -1.69225 -0.51767 -0.607171
                  }
                }
              }
            }
          }
        }
      }
      JOINT lCollar
      {
        OFFSET 2.68224 19.2634 -4.8768
        CHANNELS 3 Zrotation Xrotation Yrotation
        JOINT lShldr
        {
          OFFSET 8.77824 -1.95073 1.46304
          CHANNELS 3 Zrotation Xrotation Yrotation
          JOINT lForeArm
          {
            OFFSET 28.1742 -1.7115 0.48768
            CHANNELS 3 Zrotation Xrotation Yrotation
            JOINT lHand
            {
              OFFSET 22.5879 0.773209 7.07136
              CHANNELS 3 Zrotation Xrotation Yrotation
              JOINT lThumb1
              {
                OFFSET 1.2192 -0.487915 3.41376
                CHANNELS 3 Zrotation Xrotation Yrotation
                JOINT lThumb2
                {
                  OFFSET 3.37035 -0.52449 3.41376
                  CHANNELS 3 Zrotation Xrotation Yrotation
                  End Site
                  {
                    OFFSET 1.78271 -1.18214 1.43049
                  }
                }
              }
              JOINT lIndex1
              {
                OFFSET 7.75947 0.938293 5.60832
                CHANNELS 3 Zrotation Xrotation Yrotation
                JOINT lIndex2
                {
                  OFFSET 2.54057 -0.884171 1.56538
                  CHANNELS 3 Zrotation Xrotation Yrotation
                  End Site
                  {
                    OFFSET 1.62519 -0.234802 1.16502
                  }
                }
              }
              JOINT lMid1
              {
                OFFSET 8.24714 1.18213 3.41376
                CHANNELS 3 Zrotation Xrotation Yrotation
                JOINT lMid2
                {
                  OFFSET 3.10165 -0.590103 1.0647
                  CHANNELS 3 Zrotation Xrotation Yrotation
                  End Site
                  {
                    OFFSET 2.48547 -0.328903 0.83742
                  }
                }
              }
              JOINT lRing1
              {
                OFFSET 8.82822 0.546677 1.51678
                CHANNELS 3 Zrotation Xrotation Yrotation
                JOINT lRing2
                {
                  OFFSET 2.60934 -0.819778 -0.0198488
                  CHANNELS 3 Zrotation Xrotation Yrotation
                  End Site
                  {
                    OFFSET 2.33842 -0.294052 0.168128
                  }
                }
              }
              JOINT lPinky1
              {
                OFFSET 8.27202 -0.0477905 -0.4584
                CHANNELS 3 Zrotation Xrotation Yrotation
                JOINT lPinky2
                {
                  OFFSET 1.82734 -0.647385 -0.700984
                  CHANNELS 3 Zrotation Xrotation Yrotation
                  End Site
                  {
                    OFFSET 1.69225 -0.51767 -0.607171
                  }
                }
              }
            }
          }
        }
      }
    }
  }
  JOINT rButtock
  {
    OFFSET -8.77824 4.35084 1.2192
    CHANNELS 3 Zrotation Xrotation Yrotation
    JOINT rThigh
    {
      OFFSET 0 -1.70687 -2.19456
      CHANNELS 3 Zrotation Xrotation Yrotation
      JOINT rShin
      {
        OFFSET 0 -36.8199 0.73152
        CHANNELS 3 Zrotation Xrotation Yrotation
        JOINT rFoot
        {
          OFFSET 0.73152 -45.1104 -5.12064
          CHANNELS 3 Zrotation Xrotation Yrotation
          End Site
          {
            OFFSET -1.1221 -3.69964 12.103
          }
        }
      }
    }
  }
  JOINT lButtock
  {
    OFFSET 8.77824 4.35084 1.2192
    CHANNELS 3 Zrotation Xrotation Yrotation
    JOINT lThigh
    {
      OFFSET 0 -1.70687 -2.19456
      CHANNELS 3 Zrotation Xrotation Yrotation
      JOINT lShin
      {
        OFFSET 0 -36.8199 0.73152
        CHANNELS 3 Zrotation Xrotation Yrotation
        JOINT lFoot
        {
          OFFSET -0.73152 -45.1104 -5.12064
          CHANNELS 3 Zrotation Xrotation Yrotation
          End Site
          {
            OFFSET 1.1221 -3.69964 12.103
          }
        }
      }
    }
  }
}
MOTION
Frames:	8
Frame Time:	0.03333
0.0 0.0 0.0 0.0 0.0 0.0 0.0 0.0 0.0 0.0 0.0 0.0 0.0 0.0 0.0 0.0 0.0 0.0 0.0 0.0 0.0 0.0 0.0 0.0 0.0 0.0 0.0 0.0 0.0 0.0 0.0 0.0 0.0 0.0 0.0 0.0 0.0 0.0 0.0 0.0 0.0 0.0 0.0 0.0 0.0 0.0 0.0 0.0 0.0 0.0 0.0 0.0 0.0 0.0 0.0 0.0 0.0 0.0 0.0 0.0 0.0 0.0 0.0 0.0 0.0 0.0 0.0 0.0 0.0 0.0 0.0 0.0 0.0 0.0 0.0 0.0 0.0 0.0 0.0 0.0 0.0 0.0 0.0 0.0 0.0 0.0 0.0 0.0 0.0 0.0 0.0 0.0 0.0 0.0 0.0 0.0 0.0 0.0 0.0 0.0 0.0 0.0 0.0 0.0 0.0 0.0 0.0 0.0 0.0 0.0 0.0 0.0 0.0 0.0 0.0 0.0 0.0 0.0 0.0 0.0 0.0 0.0 0.0 0.0 0.0 0.0 0.0 0.0 0.0 0.0 0.0 0.0
0.0185 62.094800000000006 -0.9367000000000001 -8.470614 30.590591 5.941116 -1.819248 11.656191 -36.496979 8.600598 -11.64893 46.057128 6.699982 -1.510682 68.853973 -2.107739 -2.526837 -74.358858 -0.004531 0.0 -0.002559 -0.004886 -0.0 0.002217 4.238698 -44.742741 -8.648573 -148.7653 51.420484 160.055043 -175.236517 50.772407 36.983802 170.299744 -20.653536 143.105297 -85.829498 38.630744 47.955367 -156.340065 -33.706405 80.998634 10.212779 -18.050419 -4.562392 -59.579147 48.682352 47.204705 -160.673563 -6.668225 143.243524 -155.870513 15.49286 139.520703 -0.002181 -0.060902 -0.0187 10.314341 0.360443 -0.021946 -145.542192 13.244677 -142.149641 1.456692 -2.047729 -2.641693 -3.191942 -25.838914 5.074028 -29.723062 -56.260631 -27.759226 34.506091 -15.798671 177.600443 -125.282202 -67.662694 -107.282549 78.030472 38.689292 -42.412803 -72.539937 -48.1653 -27.208361 28.900889 31.616106 -21.338279 163.930712 -11.695907 -111.119843 -0.047145 -0.138578 0.027647 16.046225 40.00127 -12.812591 69.294935 72.948027 -87.015957 -5.088291 27.641783 0.6808 147.907112 21.201695 144.189309 44.601249 -49.389244 44.972395 179.967704 75.750542 0.026573 -155.563004 11.466937 81.203534 103.081834 26.075003 -15.56573 -153.901545 58.815316 73.656436 -0.001554 0.000909 -0.002331 57.102822 -48.6149 -42.549364 -99.164006 -25.400075 2.971568 27.725009 -16.724061 90.370404
0.1308 57.1223 -1.4609 -8.558185 30.994792 5.70267 -1.072887 13.314054 -55.161215 11.979044 -8.909951 63.400232 7.279659 7.487839 120.027333 -11.656543 5.370323 -127.220159 -0.002611 0.0 -0.000606 0.003102 -0.0 -0.000173 -13.743221 42.431692 15.568711 12.731036 -20.917811 8.504285 172.165289 3.554791 40.502573 166.498305 -19.206538 144.345673 -171.602746 -9.28657 89.949601 -115.452775 13.771622 52.945595 -156.486691 -26.683714 122.37146 -61.583485 57.391954 46.429657 -152.826182 14.792635 138.513109 -88.597235 63.711176 80.394652 -145.119333 0.184987 -179.187425 -76.147498 -77.982228 -97.662833 -157.329588 57.246477 -150.511797 -146.843828 7.48964 -140.985504 158.467614 -30.055611 -166.919779 -13.219546 42.341448 -15.775602 -156.934279 7.421392 58.357131 30.369968 60.939918 -15.728984 164.698611 -2.371981 -89.584778 -171.225207 -24.063605 -92.886366 83.733109 42.331066 -69.989822 13.684957 27.599739 -4.136604 0.057934 0.167796 -0.032441 -91.951622 -78.577536 -62.951163 -0.004883 1.770457 -0.55614 156.616413 -42.779149 -177.029356 -7.930454 24.811412 -7.000818 162.189536 61.398581 149.848036 -0.002756 0.000853 -0.001378 56.102779 -53.628403 50.799871 -122.789762 61.407555 161.807164 -90.501966 35.572762 8.500774 -0.027582 0.000858 -0.020687 67.397421 -51.18561 135.944149 115.54972 34.674662 145.393802 135.331634 -39.27381 -156.303659
0.2542 51.6266 -1.8471000000000002 -7.511045 31.492158 6.329884 -3.735774 15.74091 0.864793 1.350975 -16.277085 5.844629 -12.602236 6.82016 -91.339225 13.534378 20.881973 78.868348 0.00189 -0.0 -0.000851 0.00189 -0.0 -0.000851 -150.427039 20.642132 155.571093 -2.708245 44.300031 16.224604 14.489463 0.80402 -135.788708 162.262812 -24.976132 143.533447 11.110729 -11.091918 -0.641058 17.966105 -43.986591 -22.944989 5.920172 -10.174843 -2.969277 -151.066972 -0.280763 109.557091 -6.646813 17.108667 4.326646 -154.016762 20.042013 138.719823 0.001891 0.063713 0.020406 -155.425271 -1.185082 171.990217 -126.79817 -26.619154 -124.511945 -7.831526 -22.054244 -10.970247 143.6209 38.233493 -148.080744 157.928712 14.648929 175.306368 -114.676846 -82.053023 30.422356 -167.798774 -19.961097 -143.694857 171.706425 -9.388311 -89.948642 -117.404751 -61.32907 -86.208536 -33.029686 -53.844512 2.716988 158.771151 -17.720682 -113.161477 0.05833 0.16789 -0.030703 111.957566 60.039405 -102.503043 73.626647 72.972335 -91.554123 -4.99375 29.770501 0.454415 26.563015 -38.861596 25.604859 137.300235 -13.062262 135.510823 0.002139 0.000705 0.00107 70.166743 -53.96845 180.0 116.5902 8.190596 -145.186991 88.83419 33.302497 6.742466 -0.0172 -0.002028 -0.0129 79.886767 -49.249452 77.705945 -154.489604 55.395839 38.574147 75.137176 -42.60358 149.376348
0.3212 46.103899999999996 -1.8754 -6.444021 31.224673 6.854399 -4.586311 17.09139 1.16754 1.392854 -16.606528 5.531339 -13.128858 6.658388 -89.984457 15.881049 20.44176 74.783252 0.000553 0.0 0.000632 0.000647 -0.0 -0.002188 -82.877114 68.300305 86.000705 -159.122455 16.157126 166.837791 -127.825155 46.710051 -117.888069 1.227613 13.019173 2.939263 -173.770969 -11.439807 89.89151 -156.388383 2.308326 82.572443 -150.885558 -16.291416 120.978731 4.310489 13.358739 -7.280756 -0.220275 0.638274 0.123543 -25.384182 49.365303 20.849705 0.000215 0.036506 0.01044 -156.533891 -27.666412 175.088865 12.252953 41.424843 10.280301 14.741549 44.092747 8.325143 0.165304 0.979203 -0.218737 16.166251 24.114104 -15.924801 -172.315375 5.462241 -42.35677 -166.206286 -19.773209 -144.238038 14.735141 13.585586 -3.967811 -148.693961 -76.366448 -68.714663 150.88554 -16.291589 -120.978346 -171.842435 -54.563755 -108.552429 125.6446 49.840465 -115.274751 4.890867 21.299609 -4.703885 145.112195 -0.668544 178.918309 -8.831176 -14.06712 10.958941 141.730581 1.976881 138.709116 -11.048917 24.717364 -3.797284 179.973549 75.749497 0.021763 -140.2953 -4.569203 4.724722 -150.353231 41.446997 28.209793 84.459259 -50.688212 170.396888 -179.830521 75.749451 -0.130625 -134.15895 -10.314233 11.581224 -179.155882 57.185073 -159.283088 54.074282 -38.677457 -16.62567
0.58 40.7913 -1.5879999999999999 -6.024938 30.169241 6.211517 -4.781172 14.40549 -170.347327 0.580021 12.385261 177.398181 5.541542 0.621488 75.712257 -11.18542 -4.11138 -89.737587 -0.003614 -0.0 0.003461 0.002175 -0.0 -0.001735 -29.828847 58.183786 32.234552 9.428896 16.42044 10.546636 -158.449911 49.283775 32.834051 143.71914 -49.313023 129.57432 -103.198472 36.330601 60.111948 -133.796703 -18.087757 74.877554 2.325755 -3.867998 -1.258198 -86.206893 47.24339 67.937941 6.533193 -20.414936 -2.717422 11.300516 -24.948357 -1.548007 -145.118806 0.241004 -179.202476 -152.387289 -25.063199 -175.32938 -144.857428 11.080256 -141.542616 -148.245636 13.794158 -142.17104 157.796389 -22.115127 -165.468673 -29.467625 -10.240638 -8.13875 -112.792673 -35.522946 120.702845 136.208011 74.441535 -117.772451 -0.566758 -0.561932 0.084062 -7.077113 -10.050957 6.060676 1.800135 2.860604 -1.047407 -0.741455 14.08303 -2.845662 153.32247 13.628905 -138.861344 128.882187 51.840875 -118.092486 145.10124 -1.522236 178.650248 152.266416 -24.948169 175.355082 -3.200894 9.007793 -2.914375 146.853087 9.523779 143.1606 -0.000747 -6.8e-05 -0.001121 91.888232 -46.442082 -178.701048 132.068518 11.015486 -59.564548 -88.674085 25.746726 3.937601 -0.000747 -6.8e-05 -0.001121 99.454854 -34.509663 -0.0 -132.898565 -8.775872 74.006695 72.108 -14.138801 -1.658543
0.9886 35.6301 -1.0624 -5.334841 29.114083 4.381542 -6.004906 22.471258 2.070525 1.884994 -17.846716 6.174729 3.599066 -1.039933 57.595776 -9.909954 -8.615908 -73.375879 0.002944 -0.0 -0.001911 -0.002783 0.0 -0.001747 -142.973781 39.431174 147.388919 94.269955 -79.849468 80.31966 -176.008713 21.071239 47.413907 152.698788 -39.553614 137.386614 -171.603258 -9.28633 89.949783 30.186096 -65.008852 25.016293 -153.453085 -21.067402 121.745465 -176.916471 -43.504642 115.186228 0.540455 -1.590062 -0.294835 80.535648 -78.005022 52.077784 -0.000658 0.063768 0.019672 -23.394805 72.954502 36.418346 1.1337 3.041179 1.040966 -3.470391 -14.300468 -5.197262 13.741976 42.43197 -15.567901 179.351328 -14.487832 -179.386774 -1.025195 -31.774711 133.312644 -153.98137 -39.384979 -137.414188 161.771385 0.528655 -89.181721 -20.434726 -56.873477 -22.319366 10.569162 15.014246 -6.864395 159.728682 -8.439731 -110.158273 0.057968 0.167778 -0.032569 -29.357081 -60.225478 -6.394047 145.120208 0.185883 179.185893 148.13298 -43.03123 170.60334 164.398223 75.860753 150.216531 -0.387822 -2.607892 2.197126 -0.004336 -1.1e-05 -0.002168 99.44304 -34.957036 17.212091 -152.244113 -3.277295 -76.479226 -99.981727 30.562524 -161.227427 -0.004801 -0.000402 -0.004801 105.333187 -21.275935 -84.31816 177.709946 -37.676275 6.347951 -153.144285 -4.964792 12.769969
1.4555 31.100499999999997 -0.3614 -4.834123 29.046073 0.84188 -4.577534 22.959827 -153.295069 5.710845 13.550332 159.642636 6.14046 6.807684 100.917578 -21.708623 5.935843 -115.729384 -0.001618 0.0 -0.000282 -0.001618 0.0 -0.000282 -155.716436 -4.925139 162.13628 6.302777 0.363816 11.27686 -16.309208 26.693379 -120.751895 136.845789 -54.322979 123.316728 -174.195345 -11.856605 89.869768 178.887055 -17.233195 96.148197 -138.765801 4.48834 115.03187 -14.036361 35.268986 3.270185 0.234078 -0.689402 -0.130706 168.035589 -64.09307 133.239302 0.00023 0.036422 0.010985 -156.585697 -34.931648 175.975711 -153.202402 41.295967 -148.284198 34.046173 74.666477 -0.211398 -0.023261 -0.138749 0.029766 -19.217091 -64.351765 -25.05976 -106.515035 -88.139653 29.65896 -155.299305 -36.893363 -138.813076 93.742912 37.96382 -53.549152 159.418486 -32.558463 -79.424334 -11.981845 -21.34678 5.060345 -3.136153 14.868588 -2.334012 36.035607 51.723735 -29.830922 167.73656 -19.058681 -144.178562 70.380983 -72.12926 87.280539 149.891189 -26.961874 179.992541 157.333461 57.246636 150.50871 -0.647692 -2.297721 2.390932 179.978483 75.749753 0.017704 -95.102792 -18.404053 -91.614879 -149.028392 -11.398283 91.593389 -62.842445 -7.246547 3.486927 0.0 0.001578 -0.000776 110.101815 1.65424 1.409108 -148.762379 -1.885301 81.853811 24.982406 -26.258008 -15.388602
